<svg xmlns="http://www.w3.org/2000/svg" viewBox="0 0 17.89 17.89"><defs><style>.cls-1{fill-rule:evenodd;}.cls-2{fill:none;stroke:#000;stroke-miterlimit:10;stroke-width:0.5px;}</style></defs><title>facebook</title><g id="Capa_2" data-name="Capa 2"><g id="Capa_2-2" data-name="Capa 2"><g id="Capa_3" data-name="Capa 3"><path class="cls-1" d="M9.1,14H7.38c0-.1,0-.19,0-.28V9.24C7.37,9,7.3,9,7.1,9c-.39,0-.77,0-1.16,0-.15,0-.22,0-.21-.2,0-.4,0-.8,0-1.21,0-.15,0-.21.2-.2H7.35c0-.1,0-.19,0-.28,0-.63,0-1.27,0-1.9A1.82,1.82,0,0,1,9.1,3.66h1.64c.13,0,.19,0,.19.18,0,.37,0,.74,0,1.1,0,.14,0,.19-.19.19h-.61a1.08,1.08,0,0,0-.77.3A.71.71,0,0,0,9.1,6c0,.46,0,.91,0,1.4h1.14c.51,0,.51,0,.51.51V8.7c0,.29,0,.29-.28.29H9.1Z"/><rect class="cls-2" x="0.25" y="0.25" width="17.39" height="17.39" rx="8.69" ry="8.69"/></g></g></g></svg>