<svg xmlns="http://www.w3.org/2000/svg" viewBox="0 0 17.89 17.89"><defs><style>.cls-1{fill:none;stroke:#000;stroke-miterlimit:10;stroke-width:0.5px;}.cls-2{fill-rule:evenodd;}</style></defs><title>instagram</title><g id="Capa_2" data-name="Capa 2"><g id="Capa_2-2" data-name="Capa 2"><g id="Capa_3" data-name="Capa 3"><rect class="cls-1" x="0.25" y="0.25" width="17.39" height="17.39" rx="8.69" ry="8.69"/><path class="cls-2" d="M14.59,8.71c0,.75,0,1.49,0,2.24a3.54,3.54,0,0,1-.46,1.77A2.69,2.69,0,0,1,12.16,14a8.25,8.25,0,0,1-1.49.12c-1.1,0-2.19,0-3.28,0A5.1,5.1,0,0,1,5.7,14a2.8,2.8,0,0,1-1.89-2.09,6.66,6.66,0,0,1-.14-1.6q0-1.63,0-3.27a5.55,5.55,0,0,1,.21-1.67A2.8,2.8,0,0,1,6,3.4a6.58,6.58,0,0,1,1.6-.14h3.28a5.28,5.28,0,0,1,1.68.22,2.8,2.8,0,0,1,1.9,2.09,7.11,7.11,0,0,1,.14,1.6c0,.51,0,1,0,1.54ZM9.13,4.22v0H7.48a8.47,8.47,0,0,0-1.13.09,1.84,1.84,0,0,0-1.58,1.5,7.43,7.43,0,0,0-.11,1.49c0,.66,0,1.32,0,2s0,1.35.08,2a1.84,1.84,0,0,0,1.51,1.74,7.58,7.58,0,0,0,1.5.11c.67,0,1.33,0,2,0s1.34,0,2-.08a1.85,1.85,0,0,0,1.74-1.51,7.52,7.52,0,0,0,.11-1.5c0-.67,0-1.34,0-2s0-1.33-.08-2A1.9,1.9,0,0,0,13,4.9a2.11,2.11,0,0,0-1.48-.61c-.8,0-1.59,0-2.39-.07"/><path class="cls-2" d="M9.12,11.52a2.81,2.81,0,1,1,2.81-2.87,2.83,2.83,0,0,1-2.81,2.87m1.82-2.81a1.82,1.82,0,1,0-1.82,1.82,1.84,1.84,0,0,0,1.82-1.82"/><path class="cls-2" d="M12.69,5.8a.66.66,0,0,1-.65.66.66.66,0,0,1,0-1.32.64.64,0,0,1,.66.66"/></g></g></g></svg>