<?xml version="1.0" encoding="UTF-8" standalone="no"?>
<svg
   xmlns:dc="http://purl.org/dc/elements/1.1/"
   xmlns:cc="http://creativecommons.org/ns#"
   xmlns:rdf="http://www.w3.org/1999/02/22-rdf-syntax-ns#"
   xmlns:svg="http://www.w3.org/2000/svg"
   xmlns="http://www.w3.org/2000/svg"
   xmlns:sodipodi="http://sodipodi.sourceforge.net/DTD/sodipodi-0.dtd"
   xmlns:inkscape="http://www.inkscape.org/namespaces/inkscape"
   width="57.479141mm"
   height="60.401634mm"
   viewBox="0 0 57.479141 60.401634"
   version="1.1"
   id="svg8"
   inkscape:version="1.0.1 (3bc2e813f5, 2020-09-07)"
   sodipodi:docname="LogoAguacatalia.svg">
  <defs
     id="defs2">
    <clipPath
       clipPathUnits="userSpaceOnUse"
       id="clipPath849">
      <path
         d="M 0,792 H 612 V 0 H 0 Z"
         id="path847" />
    </clipPath>
    <clipPath
       clipPathUnits="userSpaceOnUse"
       id="clipPath865">
      <path
         d="M 268.663,411.584 C 249.887,375.399 241.195,364.33 241.195,342.771 v 0 c 0,-22.579 5.042,-29.898 11.136,-33.678 v 0 c 17.334,-10.749 48.1,-7.371 57.011,-6.637 v 0 c 1.838,0.151 4.966,-0.076 9.265,-0.302 v 0 c 10.946,-0.577 29.484,-1.153 53.669,4.502 v 0 c 7.028,1.643 10.663,11.818 10.663,36.115 v 0 c 0,21.559 -6.492,22.555 -27.469,68.813 v 0 c -8.733,19.264 -8.635,37.455 -43.402,37.455 v 0 c -31.426,0 -33.608,-18.575 -43.405,-37.455"
         id="path863" />
    </clipPath>
    <radialGradient
       fx="0"
       fy="0"
       cx="0"
       cy="0"
       r="1"
       gradientUnits="userSpaceOnUse"
       gradientTransform="matrix(78.560127,0,0,-67.791847,312.06726,375.20709)"
       spreadMethod="pad"
       id="radialGradient875">
      <stop
         style="stop-opacity:1;stop-color:#ffffff"
         offset="0"
         id="stop871" />
      <stop
         style="stop-opacity:1;stop-color:#c1c119"
         offset="1"
         id="stop873" />
    </radialGradient>
    <clipPath
       clipPathUnits="userSpaceOnUse"
       id="clipPath885">
      <path
         d="M 0,792 H 612 V 0 H 0 Z"
         id="path883" />
    </clipPath>
  </defs>
  <sodipodi:namedview
     id="base"
     pagecolor="#ffffff"
     bordercolor="#666666"
     borderopacity="1.0"
     inkscape:pageopacity="0.0"
     inkscape:pageshadow="2"
     inkscape:zoom="0.35"
     inkscape:cx="105.76486"
     inkscape:cy="125.57338"
     inkscape:document-units="mm"
     inkscape:current-layer="layer1"
     inkscape:document-rotation="0"
     showgrid="false"
     fit-margin-top="0"
     fit-margin-left="0"
     fit-margin-right="0"
     fit-margin-bottom="0"
     inkscape:window-width="1920"
     inkscape:window-height="1001"
     inkscape:window-x="-9"
     inkscape:window-y="-9"
     inkscape:window-maximized="1" />
  <metadata
     id="metadata5">
    <rdf:RDF>
      <cc:Work
         rdf:about="">
        <dc:format>image/svg+xml</dc:format>
        <dc:type
           rdf:resource="http://purl.org/dc/dcmitype/StillImage" />
        <dc:title></dc:title>
      </cc:Work>
    </rdf:RDF>
  </metadata>
  <g
     inkscape:label="Layer 1"
     inkscape:groupmode="layer"
     id="layer1"
     transform="translate(-77.849715,-114.94204)">
    <g
       id="g841"
       inkscape:label="AGUCATALIA LOGO EDITABLE"
       transform="matrix(0.35277777,0,0,-0.35277777,-4.0098615,279.76532)">
      <g
         id="g843">
        <g
           id="g845"
           clip-path="url(#clipPath849)">
          <g
             id="g851"
             transform="translate(387.8809,314.2773)">
            <path
               d="m 0,0 c -0.444,0.085 -0.841,0.226 -1.205,0.403 1.56,5.836 2.312,14.144 2.281,26.176 -0.06,23.389 -24.459,60.608 -29.801,74.656 -8.261,21.726 -17.469,33.2 -33.255,37.284 l -2.429,5.614 c -2.004,3.769 -5.369,5.653 -10.099,5.653 -2.182,0 -4.187,-0.472 -6.003,-1.413 -1.822,-0.942 -3.187,-2.356 -4.095,-4.24 l -1.967,-4.566 c -19.683,-3.351 -28.821,-18.22 -36.329,-38.332 -4.563,-12.221 -30.922,-51.288 -29.802,-74.656 0.572,-11.931 1.957,-20.481 4.07,-26.471 -0.132,-0.031 -0.242,-0.084 -0.381,-0.108 -4.55,-1.1 -6.823,-3.613 -6.823,-7.536 v -7.535 c 2,0 4.41,0.311 7.233,0.941 2.819,0.626 5.501,1.49 8.05,2.591 0.282,0.121 0.531,0.265 0.806,0.39 0.536,-0.228 1.084,-0.419 1.649,-0.57 36.919,-9.842 55.768,-4.402 62.287,-4.818 13.589,-0.867 22.105,-4.564 58.494,2.49 0.761,0.148 1.499,0.305 2.212,0.476 l 0.641,-1.5 H 7.095 v 7.535 C 7.095,-3.613 4.729,-1.1 0,0"
               style="fill:#192e1e;fill-opacity:1;fill-rule:nonzero;stroke:none"
               id="path853" />
          </g>
          <g
             id="g855"
             transform="translate(357.1094,413.3301)">
            <path
               d="M 0,0 C -10.631,29.473 -20.166,38.868 -45.042,38.868 -72.599,38.868 -80.07,23.025 -90.084,0 c -5.484,-12.611 -28.505,-49.038 -28.505,-71.41 0,-23.403 4.803,-31.736 11.835,-34.911 31.65,-14.292 53.322,-5.537 59.629,-5.94 6.083,-0.388 22.494,-4.301 60.819,2.889 8.375,1.571 13.763,10.349 14.811,37.962 C 29.354,-49.05 5.163,-14.315 0,0"
               style="fill:#428e3c;fill-opacity:1;fill-rule:nonzero;stroke:none"
               id="path857" />
          </g>
        </g>
      </g>
      <g
         id="g859">
        <g
           id="g861"
           clip-path="url(#clipPath865)">
          <g
             id="g867">
            <g
               id="g869">
              <path
                 d="M 268.663,411.584 C 249.887,375.399 241.195,364.33 241.195,342.771 v 0 c 0,-22.579 5.042,-29.898 11.136,-33.678 v 0 c 17.334,-10.749 48.1,-7.371 57.011,-6.637 v 0 c 1.838,0.151 4.966,-0.076 9.265,-0.302 v 0 c 10.946,-0.577 29.484,-1.153 53.669,4.502 v 0 c 7.028,1.643 10.663,11.818 10.663,36.115 v 0 c 0,21.559 -6.492,22.555 -27.469,68.813 v 0 c -8.733,19.264 -8.635,37.455 -43.402,37.455 v 0 c -31.426,0 -33.608,-18.575 -43.405,-37.455"
                 style="fill:url(#radialGradient875);stroke:none"
                 id="path877" />
            </g>
          </g>
        </g>
      </g>
      <g
         id="g879">
        <g
           id="g881"
           clip-path="url(#clipPath885)">
          <g
             id="g887"
             transform="translate(273.5767,351.8857)">
            <path
               d="m 0,0 c -0.132,3.809 0.866,7.356 1.855,10.896 1.798,6.431 4.399,12.604 8.291,18.333 2.991,4.399 6.64,8.315 11.477,11.325 4.829,3.006 10.216,4.652 16.167,4.939 1.396,0.068 2.734,-0.138 4.063,-0.455 C 52.212,42.566 60.201,37.26 66.27,29.715 70.922,23.93 73.737,17.463 75.449,10.621 76.437,6.67 77.318,2.697 76.966,-1.38 76.321,-8.851 73.503,-15.52 67.148,-20.843 57.198,-30.585 49.389,6.746 38.517,6.527 26.954,6.295 23.902,-26.993 12.097,-22.672 5.668,-18.592 2.021,-13.018 0.621,-6.298 0.179,-4.178 -0.07,-2.038 0,0"
               style="fill:#3b2119;fill-opacity:1;fill-rule:nonzero;stroke:none"
               id="path889" />
          </g>
          <g
             id="g891"
             transform="translate(349.1924,465.5596)">
            <path
               d="m 0,0 c -4.832,0 -8.749,-3.917 -8.749,-8.749 0,-4.832 3.917,-8.749 8.749,-8.749 4.832,0 8.748,3.917 8.748,8.749 C 8.748,-3.917 4.832,0 0,0 M 10.578,-8.922 C 10.578,-14.764 5.842,-19.5 0,-19.5 c -5.842,0 -10.578,4.736 -10.578,10.578 0,5.842 4.736,10.578 10.578,10.578 5.842,0 10.578,-4.736 10.578,-10.578"
               style="fill:#192e1e;fill-opacity:1;fill-rule:nonzero;stroke:none"
               id="path893" />
          </g>
          <g
             id="g895"
             transform="translate(347.1094,457.3164)">
            <path
               d="M 0,0 H 2.695 C 3.269,0 3.716,0.059 4.039,0.178 4.364,0.296 4.607,0.486 4.776,0.747 4.945,1.007 5.03,1.291 5.03,1.596 5.03,2.044 4.866,2.414 4.54,2.702 4.215,2.991 3.701,3.135 2.998,3.135 H 0 Z m -1.255,-5.294 v 9.476 h 4.203 c 0.845,0 1.486,-0.084 1.925,-0.255 0.44,-0.17 0.79,-0.47 1.054,-0.901 C 6.189,2.595 6.321,2.118 6.321,1.596 6.321,0.924 6.103,0.358 5.668,-0.103 5.233,-0.565 4.561,-0.858 3.651,-0.982 3.984,-1.143 4.235,-1.299 4.409,-1.454 4.774,-1.791 5.122,-2.21 5.449,-2.715 L 7.097,-5.294 H 5.52 L 4.265,-3.323 C 3.899,-2.753 3.599,-2.318 3.36,-2.017 3.125,-1.715 2.911,-1.504 2.725,-1.383 2.536,-1.263 2.347,-1.178 2.151,-1.131 2.01,-1.102 1.778,-1.086 1.453,-1.086 H 0 v -4.208 z"
               style="fill:#192e1e;fill-opacity:1;fill-rule:nonzero;stroke:none"
               id="path897" />
          </g>
        </g>
      </g>
    </g>
  </g>
</svg>
