<svg xmlns="http://www.w3.org/2000/svg" viewBox="0 0 25.33 32.52"><defs><style>.cls-1{fill:#ff7529;}.cls-2{fill:#fff;}</style></defs><title>Recurso 193</title><g id="Capa_2" data-name="Capa 2"><g id="PAGINA_1" data-name="PAGINA 1"><g id="Capa_2-2" data-name="Capa 2"><g id="Capa_3" data-name="Capa 3"><path class="cls-1" d="M5.39,24.36c-.86,0-1.72,0-2.59,0a1.25,1.25,0,0,1-1.24-1.17c0-.32,0-.65,0-1q0-4.09,0-8.19A1.57,1.57,0,0,1,2,12.85Q8,6.66,14.06.45a1.48,1.48,0,0,1,2.13,0c1,1.09,2.11,2.16,3.17,3.24,1.86,1.9,3.73,3.8,5.59,5.71a1.17,1.17,0,0,1,.22,1.46,2.13,2.13,0,0,1-.36.49q-4.95,5.09-9.92,10.16c-.78.79-1.55,1.59-2.32,2.38a1.23,1.23,0,0,1-.83.43l-3.85,0c-.12,0-.16,0-.19-.17A12.29,12.29,0,0,0,7,21.59a.42.42,0,0,1,0-.27,2.17,2.17,0,0,0,.13-1,1.9,1.9,0,1,0-2.45,2.1.56.56,0,0,1,.46.45c0,.05,0,.09,0,.13.13.44.25.89.37,1.34Z"/><path class="cls-1" d="M7.54,27.38a15.77,15.77,0,0,0-.89-5.27,4.85,4.85,0,0,0-.75-1.4,1.65,1.65,0,0,0-1.82-.64.29.29,0,0,0-.13.05c-.24.13-.2.37-.18.58s0,.53.31.66a.37.37,0,0,0,.25,0,.39.39,0,0,1,.5.11,5.1,5.1,0,0,1,.45.69A9.47,9.47,0,0,1,6,24.63a15.56,15.56,0,0,1,.28,3,4.26,4.26,0,0,1-.47,2.13,2.78,2.78,0,0,1-1.61,1.4,2.11,2.11,0,0,1-2.38-.93,3.56,3.56,0,0,1-.53-2.6A12.54,12.54,0,0,1,2,25.05c.11-.27.08-.34-.15-.51l-.38-.35C1.3,24,1.07,24,1,24.27A12,12,0,0,0,0,27.9,4.27,4.27,0,0,0,2,32a3.36,3.36,0,0,0,4.36-.77,4.9,4.9,0,0,0,1.23-3.1C7.55,27.89,7.54,27.64,7.54,27.38Z"/><path class="cls-2" d="M11.29,19.87a.41.41,0,0,1-.1.09A.91.91,0,0,1,11,20l-.18.05a1.82,1.82,0,0,1-.82-.18,6.33,6.33,0,0,1-2-1.41l-.12-.12a9.07,9.07,0,0,1-1.32-1.77,4.46,4.46,0,0,1-.48-1c0-.08,0-.14,0-.16a1.34,1.34,0,0,1,0-.17A2.41,2.41,0,0,1,6,14.87a.83.83,0,0,1,.09-.35,1.12,1.12,0,0,1,.2-.3l.1-.08a1.26,1.26,0,0,1,.87-.21,2.3,2.3,0,0,1,1,.37,5.52,5.52,0,0,1,1.07.86,12.39,12.39,0,0,1,1.24,1.51c1,1.35,1.3,2.32,1,2.92A1.56,1.56,0,0,1,11.29,19.87Zm-.12-.4v0l.06-.11a1.35,1.35,0,0,0-.09-1,8.26,8.26,0,0,0-1.3-2.08c-.13-.17-.24-.31-.33-.41l-.47-.52a4.17,4.17,0,0,0-1.21-.9,2.45,2.45,0,0,0-.38-.15,1.79,1.79,0,0,0-.34,0,1.15,1.15,0,0,0-.3,0l0,0s0,.09,0,.2a4.4,4.4,0,0,0,.48,1.07A11,11,0,0,0,9,17.92a11.6,11.6,0,0,0,1.42,1.23l.35.22a1.06,1.06,0,0,0,.26.1C11.13,19.48,11.16,19.48,11.17,19.47Z"/><path class="cls-2" d="M13.64,17.45l-.25.26a.21.21,0,0,1-.16,0s-.07,0-.12-.08l-.3-.27c-.13-.1-.34-.28-.62-.53-.54-.47-1-.9-1.42-1.29-.8-.77-1.44-1.41-1.94-1.91a9.53,9.53,0,0,1-.78-.84.26.26,0,0,1,0-.24v-.08c.53-.54.87-.88,1-1a.64.64,0,0,1,.24-.18.19.19,0,0,1,.22,0,.17.17,0,0,1,0,.25c-.23.2-.38.32-.43.38L9,12l1.27,1.21,1.47,1.39,0-.05a2.6,2.6,0,0,0,.26-.32,1.86,1.86,0,0,1,.14-.19.15.15,0,0,1,.08-.05.2.2,0,0,1,.16,0,.24.24,0,0,1,0,.21,2.8,2.8,0,0,1-.46.62c.74.7,1.26,1.19,1.56,1.46l.34.3.07.09,0,.06a.28.28,0,0,1,0,.25A2.24,2.24,0,0,1,13.64,17.45Z"/><path class="cls-2" d="M15.73,15.31l-.25.25a.24.24,0,0,1-.17,0,.29.29,0,0,1-.11-.08,3.49,3.49,0,0,0-.31-.27c-.13-.1-.34-.28-.62-.53-.54-.47-1-.9-1.42-1.29L10.91,11.5c-.4-.41-.66-.7-.78-.85a.26.26,0,0,1,0-.23l0-.08c.53-.54.86-.88,1-1a.7.7,0,0,1,.24-.17.18.18,0,0,1,.22,0,.15.15,0,0,1,0,.24l-.43.39-.06.07,1.26,1.21,1.47,1.39.06-.06a2.72,2.72,0,0,0,.25-.32l.15-.19s.05,0,.07,0a.17.17,0,0,1,.16,0,.21.21,0,0,1,0,.21,2.62,2.62,0,0,1-.45.62c.74.7,1.25,1.19,1.55,1.46s.28.24.34.3l.07.08s0,.05,0,.07a.32.32,0,0,1,0,.25A2.83,2.83,0,0,1,15.73,15.31Z"/><path class="cls-2" d="M17.87,13.08l-.2.18a.55.55,0,0,1-.66,0,.63.63,0,0,1-.18-.14l-.51-.5-.88-.85c-.48-.45-.89-.84-1.24-1.2-.69-.7-1.37-1.41-2-2.12a.28.28,0,0,1-.07-.11.2.2,0,0,1,.06-.14c0-.06.11-.14.21-.26s.35-.39.59-.64.27-.27.31-.31l.09-.07h.09l.08,0a.18.18,0,0,1,.05.08.2.2,0,0,1,0,.07l0,.07-.1.11-.36.35-.08.1a.06.06,0,0,0,0,0l.36.32c.21.19.46.43.74.72l.81.8.95.91.32-.38s.06-.05.09-.05a.16.16,0,0,1,.16,0,.2.2,0,0,1,.06.14.59.59,0,0,1,0,.08s-.09.13-.19.25l-.15.16,1.77,1.6.08.06a5.21,5.21,0,0,0,.42-.54l.18-.23.06-.05a.19.19,0,0,1,.2,0,.15.15,0,0,1,0,.16,1.88,1.88,0,0,1-.17.26A9.59,9.59,0,0,1,17.87,13.08Z"/><path class="cls-2" d="M20.08,10.83l-.19.17a.59.59,0,0,1-.24.09.36.36,0,0,1-.19-.05,1.54,1.54,0,0,1-.28-.18c-.2-.16-.55-.46-1-.9-.81-.75-1.62-1.54-2.45-2.38s-1.3-1.33-1.35-1.41A.17.17,0,0,1,14.4,6l0-.06c.05,0,.13-.15.24-.29l0,0a.45.45,0,0,1,.09-.1.43.43,0,0,1,.24-.16.3.3,0,0,0,.1-.05l.11-.1A2.85,2.85,0,0,1,15.57,5,3.14,3.14,0,0,1,16,4.86a3.68,3.68,0,0,1,.41-.08,2.59,2.59,0,0,1,.45,0,4.12,4.12,0,0,1,.45.08,5.32,5.32,0,0,1,.69.32,3.22,3.22,0,0,1,.55.44,3.17,3.17,0,0,1,.69,1.07,1.88,1.88,0,0,1,0,1.4,2.64,2.64,0,0,1-.14.29l0,0a.12.12,0,0,0,0,.06l.06,0h.05a1.42,1.42,0,0,1,.44.17,4.8,4.8,0,0,1,.53.37c.31.26.51.39.6.38a.08.08,0,0,0,.07,0s0,0,.05,0a.27.27,0,0,0,.06-.1.55.55,0,0,0,0-.16,1.06,1.06,0,0,0-.11-.21c0-.07-.14-.17-.26-.31l-.23-.24c0-.07,0-.11,0-.13l.05,0c.08-.09.2-.06.34.08l0,0a3,3,0,0,1,.36.43.94.94,0,0,1,.19.55.49.49,0,0,1-.15.35.54.54,0,0,1-.68.07,3.09,3.09,0,0,1-.45-.32,3.5,3.5,0,0,0-.78-.51.39.39,0,0,0-.29,0l-.05,0s0,0,0,0l.1.11c.11.12.28.27.5.47L20,10l.22.19a.38.38,0,0,1,.13.25.88.88,0,0,1-.05.15A1.61,1.61,0,0,1,20.08,10.83ZM18.44,8.61l.15-.17a1.68,1.68,0,0,0,0-2.11,3.38,3.38,0,0,0-.35-.44L18,5.71a2.38,2.38,0,0,0-1.9-.53,1.46,1.46,0,0,0-.68.3l-.05,0Z"/><path class="cls-1" d="M3.24,30.1A.92.92,0,0,1,2.79,30a1,1,0,0,1-.4-.45A4.13,4.13,0,0,1,2,27.73c0-.13,0-.25,0-.37A4.73,4.73,0,0,1,2.29,26a1.3,1.3,0,0,1,.49-.59.55.55,0,0,1,.37-.13c.22,0,.44,0,.67,0a4.87,4.87,0,0,1,.76.06.77.77,0,0,1,.61.39,4.36,4.36,0,0,1,.49,1.36,2.48,2.48,0,0,1,.05.45v.09a4.59,4.59,0,0,1-.5,1.9,1.58,1.58,0,0,1-.15.24.92.92,0,0,1-.69.31c-.2,0-.4,0-.61,0Zm1.33-.49a.86.86,0,0,0,.13-.2,4.22,4.22,0,0,0,.46-1.75v0a3.8,3.8,0,0,0-.51-1.8l-.05-.07a.38.38,0,0,0-.27-.1.37.37,0,0,0-.26.08.9.9,0,0,0-.26.38,4.62,4.62,0,0,0-.26,1.31c0,.1,0,.2,0,.31a3.75,3.75,0,0,0,.38,1.64.66.66,0,0,0,.17.24.42.42,0,0,0,.24.1A.31.31,0,0,0,4.57,29.61Z"/><path class="cls-1" d="M9,32.51a.26.26,0,0,1-.28-.23.53.53,0,0,1,0-.12l-.13-2.52s0-1.23,0-1.65v-.15c0-.8,0-1.61,0-2.37,0-.21.07-.31.27-.33a4.35,4.35,0,0,1,.51,0,5.06,5.06,0,0,1,.55,0c.2,0,.28.12.31.32v.21c0,.9,0,1.86,0,2.8v.15a.31.31,0,0,0,.09-.17c.32-.94.69-2,1.1-3a1.63,1.63,0,0,1,.09-.19.28.28,0,0,1,.23-.12.13.13,0,0,1,.08,0,.26.26,0,0,1,.17.25.56.56,0,0,1-.06.23c-.43,1.08-.82,2.18-1.16,3.18a7.66,7.66,0,0,1-.27.72.35.35,0,0,0,0,.13.51.51,0,0,0,0,.14,15.67,15.67,0,0,0,1.26,2,.77.77,0,0,0,.18.18L12,32a.26.26,0,0,1,.1.21.26.26,0,0,1,0,.15.27.27,0,0,1-.22.11.3.3,0,0,1-.12,0,1.29,1.29,0,0,1-.46-.38,10.07,10.07,0,0,1-.88-1.38c0-.08-.09-.14-.16-.25,0,.1,0,.2,0,.29a5,5,0,0,0,0,.56c0,.26,0,.53,0,.8v.09c0,.21-.09.3-.3.31H9Z"/></g></g></g></g></svg>