<svg xmlns="http://www.w3.org/2000/svg" viewBox="0 0 17.89 17.89"><defs><style>.cls-1{fill:none;stroke:#000;stroke-miterlimit:10;stroke-width:0.5px;}</style></defs><title>twitter</title><g id="Capa_2" data-name="Capa 2"><g id="Capa_2-2" data-name="Capa 2"><g id="Capa_3" data-name="Capa 3"><path d="M4.89,7.94A3.08,3.08,0,0,1,4,6.48,2.65,2.65,0,0,1,4.1,4.79c.08-.19.14-.18.28,0A7.26,7.26,0,0,0,9.3,7.24c.21,0,.17-.07.15-.21a2.53,2.53,0,0,1,2.09-2.87,2.42,2.42,0,0,1,2.16.61.36.36,0,0,0,.38.1,5.75,5.75,0,0,0,1.38-.55,2.53,2.53,0,0,1-1,1.34,4.22,4.22,0,0,0,1.37-.32,4.21,4.21,0,0,1-1,1.09.57.57,0,0,0-.24.48A7.28,7.28,0,0,1,11.4,13a7,7,0,0,1-4.65,1.21,6.92,6.92,0,0,1-3.24-1A5.62,5.62,0,0,0,7.12,12a2.9,2.9,0,0,1-1.44-.51,2.5,2.5,0,0,1-.91-1.23,3.51,3.51,0,0,0,1.07-.1,2.54,2.54,0,0,1-2-2.49,2.26,2.26,0,0,0,1,.25l0,0h0Z"/><path d="M4.89,7.94l.05,0h0l0,0Z"/><rect class="cls-1" x="0.25" y="0.25" width="17.39" height="17.39" rx="8.69" ry="8.69"/></g></g></g></svg>